<?xml version="1.0" standalone="no"?>
<!DOCTYPE svg PUBLIC "-//W3C//DTD SVG 20010904//EN"
 "http://www.w3.org/TR/2001/REC-SVG-20010904/DTD/svg10.dtd">
<svg version="1.0" xmlns="http://www.w3.org/2000/svg"
 width="450.000000pt" height="565.000000pt" viewBox="0 0 450.000000 565.000000"
 preserveAspectRatio="xMidYMid meet">
<metadata>
Created by potrace 1.10, written by Peter Selinger 2001-2011
</metadata>
<g transform="translate(0.000000,565.000000) scale(0.050000,-0.050000)"
fill="#000000" stroke="none">
<path d="M55 11231 l-55 -67 5 -4087 5 -4087 50 0 50 0 5 4095 5 4095 4380 0
4380 0 0 -4049 c0 -4396 -7 -4113 95 -4077 30 11 35 8127 5 8196 -12 27 -18
30 -19 10 -2 -25 -7 -24 -29 5 -25 33 -258 35 -4424 34 l-4398 -2 -55 -66z"/>
<path d="M4850 10597 c-55 -11 -235 -23 -400 -26 -539 -10 -891 -41 -970 -86
-38 -21 -121 -50 -184 -63 -121 -26 -432 -198 -464 -258 -10 -19 -111 -125
-225 -237 -114 -112 -207 -217 -207 -233 0 -17 -7 -34 -16 -37 -38 -17 -204
-405 -233 -546 -18 -84 -47 -177 -65 -204 -78 -119 -19 -526 72 -498 58 19 90
-56 85 -194 -2 -68 4 -115 16 -115 12 0 21 14 21 30 0 70 90 22 94 -50 9 -158
186 -745 257 -854 46 -71 35 -86 -40 -55 -252 105 -434 -236 -305 -571 28 -71
75 -196 104 -276 30 -80 89 -198 132 -262 43 -65 78 -135 78 -156 0 -73 66
-111 166 -96 l90 14 33 -117 c19 -64 51 -153 71 -197 35 -76 107 -293 163
-490 14 -49 34 -96 45 -103 12 -9 11 -24 -4 -42 -13 -16 -24 -106 -26 -211 -3
-218 24 -282 213 -511 120 -146 160 -183 562 -517 122 -102 296 -251 385 -331
l162 -145 170 0 169 0 274 255 c151 140 351 322 446 405 387 339 469 444 529
677 38 150 38 149 11 132 -12 -7 -27 6 -33 29 -9 34 -17 38 -39 20 -15 -13
-33 -19 -38 -14 -6 6 12 25 40 43 28 19 45 45 39 61 -13 34 73 288 163 483 83
179 147 373 163 489 12 91 53 160 96 160 43 0 90 72 90 137 0 35 30 125 68
198 228 455 277 1017 92 1058 -27 6 -59 13 -70 16 -11 3 -40 -2 -65 -11 -54
-20 -55 -7 -11 95 18 42 35 86 37 97 2 11 19 77 37 147 17 69 33 168 33 220 1
51 10 138 20 193 33 179 36 199 41 330 6 176 -20 355 -65 444 -20 41 -37 87
-37 103 0 15 -38 75 -84 133 -63 80 -85 125 -88 188 -5 81 -4 81 25 32 l29
-50 -12 60 c-12 57 -11 58 18 20 40 -52 46 8 7 71 -20 33 -20 43 4 58 23 15
24 28 5 71 -13 28 -25 90 -27 136 l-2 84 -15 -70 c-8 -40 -16 -53 -18 -30 -2
22 -8 93 -14 157 -27 326 -322 618 -698 691 -55 10 -154 33 -220 50 -243 63
-297 73 -437 81 -79 4 -188 -1 -243 -12z m103 -166 c-4 -12 -22 -18 -40 -15
-18 3 -33 -3 -33 -13 0 -10 -15 -17 -34 -16 -20 2 -38 -14 -43 -37 -4 -22 -18
-47 -30 -55 -14 -9 -7 -15 18 -15 23 0 52 -11 65 -24 13 -13 30 -17 37 -9 8 8
-7 29 -34 48 l-48 34 70 16 c202 48 482 53 579 10 l70 -32 -70 -2 c-91 -3 -51
-26 120 -70 71 -18 151 -46 176 -63 26 -17 52 -27 57 -22 13 13 -92 85 -150
103 -25 8 -41 19 -36 25 6 6 39 -4 75 -22 35 -18 79 -32 98 -32 36 0 101 -64
137 -134 13 -24 42 -46 66 -50 43 -6 52 -18 98 -126 l25 -60 13 50 c12 48 50
27 51 -28 0 -10 18 -25 40 -34 22 -8 30 -16 19 -17 -27 -1 -20 -118 9 -147 37
-37 25 -54 -37 -54 -32 0 -64 -9 -71 -20 -7 -11 -1 -20 14 -20 43 -1 82 -34
68 -57 -9 -14 -42 -7 -98 23 -46 24 -115 55 -154 68 l-70 24 50 -40 c28 -23
86 -58 130 -78 91 -43 219 -168 239 -235 19 -64 1 -56 -80 34 -71 79 -235 188
-282 188 -14 0 -30 13 -36 28 -7 17 -25 24 -42 17 -17 -6 -26 -4 -20 6 6 10
-3 23 -20 30 -20 7 -26 3 -17 -12 10 -16 3 -18 -24 -7 -21 8 -54 20 -73 26
-19 5 -35 22 -35 37 0 16 -14 28 -31 28 -17 0 -59 14 -92 32 -40 20 -68 25
-81 12 -24 -24 160 -170 197 -156 14 6 31 2 38 -9 6 -10 31 -19 56 -19 24 0
76 -27 114 -59 38 -33 79 -60 91 -60 23 -1 104 -81 82 -81 -7 0 -55 27 -107
60 -52 33 -104 60 -116 60 -26 -1 71 -79 98 -80 31 0 231 -205 231 -236 0 -15
24 -67 52 -116 58 -99 51 -141 -11 -66 -22 26 -40 37 -40 25 -1 -13 22 -52 51
-85 32 -39 41 -62 25 -61 -36 1 -128 53 -122 68 13 29 -69 117 -205 219 -82
62 -223 177 -314 258 -141 124 -420 314 -461 314 -7 0 -67 32 -132 70 -147 86
-173 89 -73 10 51 -40 64 -60 41 -60 -18 0 -47 14 -64 30 -16 17 -57 30 -90
30 -35 0 -54 8 -47 20 19 31 -141 90 -320 119 -88 15 -169 34 -179 44 -33 30
-127 19 -196 -23 -36 -22 -77 -40 -92 -40 -15 0 -50 -18 -78 -40 -31 -24 -39
-40 -22 -40 16 0 40 11 53 24 13 13 30 17 39 8 15 -16 -44 -58 -95 -67 -16 -3
-52 -9 -80 -13 -72 -12 -74 -13 -34 -29 41 -16 -135 -123 -203 -123 -21 0 -49
-13 -63 -30 -14 -16 -42 -30 -62 -30 -22 0 -38 -14 -38 -32 0 -25 11 -29 45
-19 25 8 58 15 74 16 17 1 39 9 50 19 52 44 266 172 311 186 28 9 65 32 82 53
18 20 45 38 60 39 19 1 20 4 4 11 -36 14 -7 67 36 67 21 0 38 -9 38 -20 0 -11
-11 -20 -23 -20 -13 0 -18 -6 -11 -12 6 -7 71 -1 143 13 115 23 139 22 200 -6
37 -18 71 -25 75 -15 5 16 134 -3 215 -32 25 -8 25 -13 3 -27 -19 -11 -4 -24
51 -41 111 -37 307 -137 307 -159 0 -20 114 -52 157 -43 17 3 21 -5 12 -20
-10 -16 -7 -19 8 -10 37 23 200 -64 331 -177 156 -133 332 -307 332 -328 0 -9
23 -37 50 -63 28 -26 50 -59 50 -74 0 -40 -77 5 -102 60 -11 24 -52 67 -90 94
-39 28 -81 59 -95 70 -221 182 -351 260 -753 449 -49 23 -124 60 -166 82 -110
58 -128 28 -29 -49 47 -36 90 -57 97 -47 7 10 18 4 25 -13 21 -56 -97 -22
-173 49 -24 23 -90 63 -147 89 -104 48 -151 89 -103 91 14 0 4 13 -24 28 -37
20 -53 22 -64 5 -8 -13 -48 -21 -90 -17 l-76 5 110 -57 c61 -32 135 -64 165
-72 78 -20 229 -120 221 -146 -9 -26 49 -53 76 -36 10 6 24 -3 30 -20 10 -24
19 -27 39 -10 15 12 37 17 48 10 12 -8 21 1 21 18 0 56 153 -5 400 -158 72
-45 164 -98 205 -119 41 -21 75 -46 75 -56 0 -10 -17 -8 -39 3 -46 25 -67 27
-53 5 34 -56 -29 -69 -102 -21 -217 144 -379 224 -420 208 -16 -6 -35 10 -46
39 -11 28 -33 50 -50 50 -43 0 -37 -50 11 -83 38 -25 33 -27 -52 -30 -52 -1
-100 -12 -108 -25 -25 -41 -258 -24 -247 18 8 28 -9 38 -87 49 -53 8 -116 26
-138 41 -23 14 -93 33 -155 40 -67 9 -111 24 -108 37 6 33 78 50 119 29 51
-25 43 -6 -26 65 -37 38 -73 58 -92 51 -16 -7 -39 -12 -50 -12 -11 0 -14 -9
-8 -19 7 -11 25 -14 40 -8 16 5 44 2 62 -8 26 -15 10 -22 -69 -33 -57 -7 -112
-8 -123 -2 -10 7 -19 3 -19 -9 0 -11 18 -21 40 -21 22 0 40 -10 40 -21 0 -12
9 -16 19 -10 11 7 34 -11 52 -38 28 -43 49 -51 130 -51 53 0 108 -11 123 -25
25 -24 51 -34 113 -44 14 -2 32 -13 40 -24 37 -57 364 -94 394 -45 6 10 28 18
48 18 72 0 418 -177 350 -179 -33 -1 -216 62 -244 84 -54 43 -21 -16 40 -70
l65 -58 -115 63 c-111 61 -152 64 -80 6 31 -25 30 -26 -12 -6 -242 118 -623
122 -623 7 0 -20 -11 -27 -32 -19 -17 7 -57 -3 -87 -21 -78 -46 -34 -147 65
-148 62 0 62 -1 24 -31 -40 -30 -128 -23 -150 12 -6 10 -73 10 -150 0 -76 -9
-146 -13 -155 -7 -9 5 -14 -1 -10 -14 6 -30 -289 -125 -305 -99 -12 20 -62 29
-129 23 -54 -4 12 -66 106 -99 85 -30 309 -9 295 27 -5 14 10 32 34 39 128 42
211 61 202 47 -14 -23 -4 -22 82 14 130 54 99 15 -41 -51 -101 -49 -138 -58
-149 -39 -20 31 -80 10 -80 -28 0 -33 -67 -62 -226 -95 -88 -19 -109 -29 -84
-43 27 -15 28 -23 6 -49 -22 -28 -20 -30 23 -16 27 8 63 33 81 55 23 28 63 42
140 48 l107 8 -47 -41 c-25 -22 -61 -40 -78 -40 -18 0 -67 -19 -109 -41 -56
-30 -125 -43 -250 -49 -102 -4 -140 -2 -93 6 54 10 72 19 54 31 -15 9 -60 12
-100 5 -72 -12 -73 -11 -29 20 53 39 60 108 12 108 -19 0 -48 13 -66 29 -31
28 -121 23 -121 -7 0 -8 -31 -10 -69 -6 -52 6 -95 -7 -171 -54 -109 -67 -131
-73 -150 -42 -7 12 19 34 59 51 91 38 96 78 6 57 -114 -28 -180 -21 -186 17
-3 19 3 35 13 35 10 0 37 19 60 42 22 22 52 37 66 31 14 -5 25 3 25 19 0 45
-65 32 -134 -26 -50 -42 -60 -46 -44 -15 39 71 120 133 158 121 53 -16 108 21
68 47 -16 10 -39 11 -50 2 -12 -8 -55 -27 -96 -40 -41 -13 -75 -36 -75 -51 0
-15 -23 -45 -52 -68 l-52 -41 43 -60 c24 -33 39 -69 33 -78 -6 -10 24 -42 67
-70 51 -34 84 -45 92 -31 7 12 36 16 63 9 30 -8 45 -5 37 7 -6 10 -1 26 11 33
12 8 30 2 39 -12 13 -22 31 -22 102 0 48 14 96 29 107 32 11 3 4 7 -15 7 -55
3 -41 42 15 42 28 0 50 8 50 17 0 10 23 13 50 8 28 -5 50 -21 50 -36 0 -14 11
-31 25 -37 14 -7 -4 -9 -39 -6 -35 4 -60 0 -55 -7 5 -8 -12 -20 -36 -27 -58
-16 3 -72 79 -72 25 0 46 -9 46 -21 0 -11 20 -28 44 -37 42 -15 42 -16 -11
-29 -30 -8 -49 -23 -42 -35 8 -13 21 -13 37 0 13 11 93 23 178 26 85 3 154 13
154 22 0 10 26 14 57 11 32 -3 70 3 85 15 16 12 66 32 112 45 46 13 98 38 115
55 17 17 54 35 84 40 29 5 105 50 170 100 64 50 126 85 136 79 11 -7 34 11 52
38 19 28 43 51 54 51 12 0 51 23 88 51 37 28 75 46 85 40 10 -6 56 3 103 20
48 16 91 23 98 14 16 -24 124 -17 175 11 24 13 57 18 75 12 17 -7 43 -3 57 9
42 34 138 -3 174 -67 17 -31 42 -61 54 -65 32 -10 21 60 -14 91 -25 22 -23 23
14 5 55 -27 126 -27 126 -1 0 11 -18 20 -40 20 -22 0 -40 9 -40 20 0 26 52 26
103 -1 32 -17 35 -28 16 -50 -20 -24 -16 -29 20 -29 24 0 39 7 34 16 -14 22
71 18 107 -6 17 -10 75 -21 130 -23 114 -4 163 -13 183 -33 25 -25 52 -15 40
15 -8 23 -1 25 33 13 25 -10 63 -8 90 4 63 29 103 -10 57 -56 -36 -36 -41 -56
-19 -77 14 -14 17 -26 36 -173 7 -49 20 -117 30 -150 9 -33 22 -94 29 -135 7
-41 22 -75 32 -75 40 0 61 -101 29 -133 -35 -35 -38 -60 -10 -77 11 -7 20 2
20 19 0 17 9 31 20 31 23 0 27 -46 6 -67 -30 -30 -25 -102 11 -141 105 -118
149 -472 150 -1232 1 -353 -62 -624 -149 -646 -39 -11 -54 -54 -18 -54 11 0 4
-18 -15 -40 -18 -22 -52 -40 -74 -39 -37 0 -36 3 9 29 28 16 39 29 27 29 -13
1 -37 6 -53 12 -44 17 -57 -83 -15 -120 42 -38 50 -119 10 -103 -19 7 -29 -2
-29 -27 0 -21 -11 -42 -25 -48 -15 -6 -11 -10 9 -11 23 -1 31 -13 23 -33 -8
-20 -25 -26 -52 -17 -33 10 -38 6 -28 -22 9 -22 1 -44 -20 -60 -34 -24 -42
-61 -45 -195 -2 -53 -11 -75 -32 -75 -35 0 -40 -31 -8 -51 14 -9 15 -20 2 -33
-12 -12 -13 -43 -4 -77 18 -60 -12 -88 -70 -66 -26 10 -27 3 -11 -41 22 -57 9
-112 -26 -112 -13 -1 -45 -19 -73 -42 -27 -23 -40 -36 -27 -30 38 19 46 -40
10 -74 -18 -17 -45 -46 -59 -63 -15 -18 -35 -27 -45 -20 -11 6 -28 -13 -39
-42 -17 -44 -26 -49 -50 -29 -25 21 -32 15 -43 -38 -7 -35 -20 -68 -30 -74
-10 -6 -16 -4 -12 6 7 23 -16 27 -82 14 -47 -10 -55 -20 -48 -60 12 -59 -16
-62 -65 -8 -23 26 -44 34 -56 22 -30 -30 -74 -2 -74 47 0 55 -71 151 -111 151
-43 0 -35 -27 21 -80 27 -26 50 -63 50 -82 0 -20 7 -40 16 -45 28 -18 12 -107
-30 -164 -45 -61 -102 -15 -74 60 14 35 48 42 48 10 0 -12 9 -16 19 -9 11 6 3
39 -20 76 -22 35 -51 89 -64 119 -26 60 -75 75 -75 22 0 -18 -16 -44 -35 -59
-33 -24 -33 -27 5 -55 36 -27 42 -26 62 11 37 68 49 -8 13 -82 -23 -48 -25
-70 -8 -87 40 -40 25 -56 -48 -51 -75 5 -127 43 -90 65 12 8 21 2 21 -11 0
-14 5 -19 12 -13 7 7 -2 40 -18 74 -17 33 -23 61 -12 61 10 0 18 -9 18 -20 0
-11 9 -20 20 -20 12 0 10 17 -5 40 -20 32 -38 38 -85 28 -76 -16 -83 -23 -54
-52 29 -29 32 -96 4 -96 -11 0 -20 -13 -20 -30 0 -16 14 -30 30 -30 17 0 30
-9 30 -20 0 -13 -31 -16 -80 -8 -56 9 -80 6 -80 -11 0 -13 -9 -18 -20 -11 -11
7 -20 21 -20 32 0 11 9 15 20 8 11 -7 20 10 20 39 0 28 9 51 20 51 11 0 18
-10 15 -22 -3 -13 6 -27 20 -32 14 -5 26 7 26 27 2 43 13 155 23 225 10 75
-33 70 -76 -8 -55 -104 -126 -147 -161 -99 -23 31 -27 32 -27 4 0 -17 -10 -35
-23 -39 -16 -6 -15 -20 5 -51 14 -24 19 -50 10 -59 -10 -9 -21 -5 -26 9 -5 14
-22 25 -38 25 -21 0 -27 19 -21 71 7 66 33 123 33 72 0 -51 32 -19 36 37 3 33
-5 60 -16 60 -11 0 -20 16 -20 35 -1 30 -3 30 -19 5 -12 -19 -12 -37 0 -49 28
-28 23 -51 -12 -51 -17 0 -58 -14 -92 -31 -60 -32 -60 -31 -46 14 13 41 11 43
-17 20 -17 -14 -38 -54 -45 -89 -17 -81 -44 -115 -81 -100 -22 8 -24 17 -6 38
12 15 17 41 11 57 -7 18 11 47 42 72 54 42 125 135 125 164 0 35 -34 10 -70
-50 -38 -65 -38 -65 -50 -16 l-11 48 -45 -57 c-25 -31 -41 -69 -35 -84 5 -14
2 -46 -8 -71 -14 -34 -19 -37 -20 -10 -1 39 -33 48 -45 12 -21 -63 -98 24 -84
96 9 48 5 76 -12 87 -14 9 -19 26 -11 38 21 34 51 26 53 -13 1 -22 7 -17 16
15 11 36 6 53 -17 62 -42 17 -81 0 -81 -34 0 -15 -9 -28 -20 -28 -11 0 -38
-18 -60 -40 -29 -29 -40 -32 -40 -12 0 16 -11 33 -25 39 -17 7 -18 15 -3 26
124 96 135 108 108 133 -17 16 -22 16 -13 1 8 -14 -23 -44 -79 -75 l-92 -51
-22 59 c-13 33 -34 60 -48 60 -13 0 -34 18 -46 40 -12 22 -39 40 -61 40 -45 0
-45 1 -19 69 15 40 13 51 -9 51 -42 0 -61 42 -29 62 18 11 20 17 4 18 -13 0
-39 -16 -58 -35 -34 -33 -35 -33 -23 0 8 19 5 35 -6 35 -10 0 -19 29 -19 65 0
44 -13 74 -40 90 -51 32 -50 51 4 75 54 25 71 70 26 70 -28 0 -31 13 -20 80
10 57 6 80 -11 80 -16 0 -20 20 -12 62 12 58 10 62 -37 53 -44 -8 -50 -3 -50
49 0 32 -7 54 -15 49 -27 -16 -90 43 -74 69 10 15 7 19 -8 10 -15 -10 -23 5
-23 46 0 40 -14 68 -40 82 -22 12 -40 35 -40 51 0 16 -9 29 -20 29 -203 0
-237 1621 -39 1850 19 22 41 63 50 90 15 49 20 76 37 220 4 39 14 121 22 182
16 120 13 125 -80 146 -44 10 -52 8 -30 -7 25 -17 24 -21 -10 -21 -136 -4
-257 -21 -279 -39 -13 -11 -31 -14 -39 -6 -8 8 -32 -8 -52 -35 -54 -71 -81 -1
-32 82 39 65 26 114 -20 77 -15 -13 -28 -50 -28 -81 0 -156 -78 15 -86 188 -2
46 -14 95 -27 109 -13 13 -27 36 -32 50 -7 18 -24 12 -59 -20 -85 -78 -83 -49
2 36 45 44 82 97 82 116 0 20 18 73 40 118 22 46 40 95 40 110 0 15 11 38 24
51 14 14 26 55 27 93 l2 68 -66 -51 c-37 -28 -68 -61 -69 -73 0 -13 -6 -11
-12 4 -6 16 28 64 82 114 50 47 92 100 92 117 0 18 11 33 25 34 19 1 18 4 -1
12 -42 16 33 86 92 86 28 0 45 -6 38 -12 -30 -30 162 -141 210 -121 14 5 4 11
-24 12 -40 1 -44 6 -20 22 35 23 -48 108 -90 92 -12 -5 -34 8 -47 29 -13 21
-41 38 -62 38 -66 0 -64 35 4 62 74 29 316 56 302 33 -11 -18 85 -19 149 -2
28 7 42 23 36 40 -8 19 6 27 44 27 65 0 244 61 244 84 0 22 -35 20 -49 -3 -10
-16 -128 -42 -236 -51 -19 -1 -39 -7 -45 -13 -19 -20 -113 7 -124 36 -6 15
-27 27 -48 27 -41 0 -51 30 -17 51 14 8 13 22 -4 43 -51 61 198 206 351 206
29 0 40 27 37 95 0 14 12 25 27 25 16 0 28 -9 28 -20 0 -11 10 -20 21 -20 12
0 16 9 9 20 -7 11 -4 20 7 20 11 0 23 -8 26 -18 4 -9 36 -13 71 -7 44 6 60 18
52 37 -7 19 -1 25 20 17 16 -7 36 -3 42 8 7 12 45 15 86 9 61 -10 71 -7 61 19
-18 45 30 57 160 42 96 -11 110 -9 100 18 -12 31 35 55 105 54 24 0 22 -6 -6
-28 -53 -39 -15 -52 119 -39 64 6 131 11 147 12 17 1 41 11 55 22 14 11 32 14
39 7 7 -7 24 -3 39 9 20 17 29 15 38 -8 7 -17 23 -35 36 -40 249 -101 237 -98
223 -54 -7 23 -4 40 9 40 11 0 21 9 21 20 0 26 -55 26 -63 1 -7 -20 -161 16
-189 44 -8 8 57 15 144 16 104 0 171 10 195 28 42 32 117 33 106 2z m1116
-203 c49 -74 28 -78 -39 -8 -42 44 -49 60 -26 60 17 0 47 -23 65 -52z m101
-161 c21 -21 26 -39 13 -52 -25 -25 -55 -6 -69 45 -12 48 11 52 56 7z m239
-179 c12 -49 2 -86 -17 -66 -21 21 -35 118 -16 118 11 0 26 -24 33 -52z
m-3623 -89 c-11 -42 -46 -34 -46 11 0 14 -11 31 -25 37 -19 7 -18 15 5 31 38
27 80 -23 66 -79z m3364 -399 c55 -61 23 -69 -43 -12 -41 36 -48 51 -25 51 17
1 48 -17 68 -39z m75 -175 c32 -35 69 -145 49 -145 -6 0 -33 41 -61 90 -51 91
-45 119 12 55z m-1605 -125 c-16 -11 -48 -20 -70 -20 -40 0 -218 -62 -239 -82
-6 -6 41 -8 104 -4 107 8 112 6 76 -23 -21 -17 -53 -32 -70 -33 -17 0 -48 -4
-70 -8 -21 -4 -66 4 -100 18 -33 14 -71 22 -84 18 -13 -5 -29 0 -35 11 -6 10
29 29 78 41 49 12 89 29 88 37 -6 39 4 52 21 26 13 -21 25 -23 45 -6 24 20 98
33 236 41 39 3 43 -1 20 -16z m1141 -129 c10 6 19 -2 19 -18 0 -16 15 -27 33
-26 18 2 37 -8 42 -22 21 -61 -117 15 -265 146 -39 34 -23 27 46 -20 58 -40
114 -67 125 -60z m-475 -4 c-13 -35 -55 -34 -85 2 -20 24 -14 28 36 27 41 -1
56 -10 49 -29z m-1526 -178 c0 -15 -133 -69 -164 -67 -14 1 10 18 54 39 84 40
110 46 110 28z m2595 -86 c-8 -29 -1 -36 28 -28 25 6 37 -1 37 -22 0 -21 11
-28 32 -19 26 10 30 3 19 -31 -10 -30 -4 -47 18 -55 39 -15 41 -48 2 -48 -16
0 -38 16 -48 35 -18 32 -23 31 -62 -13 -23 -27 -48 -42 -56 -34 -7 8 -1 23 16
33 24 16 24 22 2 37 -32 20 4 52 37 32 11 -7 20 2 20 19 0 17 -12 31 -28 31
-36 0 -79 53 -63 79 22 36 56 23 46 -16z m124 -242 c36 -36 37 -46 12 -105
-27 -64 -71 -100 -71 -58 0 12 8 22 19 22 23 0 21 117 -2 132 -9 6 -17 -6 -18
-26 0 -34 -1 -34 -21 -1 -42 72 18 99 81 36z m-3689 -194 c-11 -4 -51 -27 -90
-52 l-70 -45 85 -6 c97 -7 99 -10 45 -64 -47 -47 -69 -52 -54 -12 16 41 -86
56 -140 21 -57 -37 -86 -37 -86 1 0 17 18 30 42 30 35 0 38 5 19 28 -19 23
-11 31 43 43 36 7 84 24 106 36 22 12 46 22 53 22 8 1 20 8 29 16 8 8 20 9 26
2 7 -7 3 -16 -8 -20z m150 -169 c0 -7 -22 -28 -50 -46 -27 -18 -50 -24 -50
-14 0 10 11 23 25 28 19 7 20 15 2 34 -18 19 -18 31 0 51 22 26 73 -11 73 -53z
m3515 -24 c35 13 31 -27 -4 -41 -27 -10 -48 6 -81 67 -14 24 -10 24 22 -2 21
-18 49 -29 63 -24z m-3912 -54 c-36 -33 -74 -55 -85 -49 -21 13 28 69 61 69
11 0 21 9 21 20 0 11 16 20 34 20 26 0 18 -15 -31 -60z m287 -107 c-17 -40
-39 -73 -50 -73 -29 0 -25 17 22 94 54 86 68 75 28 -21z m3530 7 c0 -49 17
-51 52 -5 25 33 27 32 27 -8 1 -24 7 -60 15 -80 12 -32 9 -33 -18 -11 -26 20
-34 21 -40 1 -5 -14 -24 5 -42 42 -39 77 -42 101 -14 101 11 0 20 -18 20 -40z
m-3546 -148 c-5 -12 -20 -56 -35 -97 -29 -79 -59 -99 -59 -39 0 20 -11 47 -25
61 -19 19 -15 27 20 36 25 6 40 20 34 29 -6 10 -6 27 0 37 16 26 75 2 65 -27z
m3844 -583 c4 -4 -2 -20 -15 -35 -16 -19 -16 -47 -2 -96 35 -121 21 -442 -22
-518 -12 -20 -18 -3 -18 55 -1 85 -51 173 -87 152 -10 -7 -7 8 5 32 19 35 18
53 -7 91 -18 26 -27 61 -20 77 6 16 1 35 -11 42 -35 22 -24 122 22 180 39 49
115 59 155 20z m-4063 -108 c117 -3 168 -238 65 -297 -57 -33 -82 -84 -40 -84
25 0 26 -74 2 -89 -10 -6 -23 0 -28 14 -22 61 -54 -27 -59 -165 l-5 -149 66
-22 c105 -35 145 -89 158 -216 6 -62 19 -113 29 -113 9 0 17 -18 17 -40 0 -50
-24 -51 -66 -4 -20 21 -28 53 -21 80 9 32 3 44 -21 44 -18 0 -32 16 -32 38 0
20 -13 48 -30 62 -16 14 -30 35 -30 47 0 12 -26 45 -57 72 -96 86 -134 433
-73 661 36 134 36 127 2 114 -19 -8 -24 0 -18 27 7 26 24 36 53 30 24 -4 63
-9 88 -10z m-190 -173 c-10 -43 -15 -112 -13 -153 4 -80 -21 -101 -42 -35 -14
44 0 138 34 226 30 76 41 55 21 -38z m291 -426 c0 -43 5 -88 13 -100 7 -12 6
-22 -3 -22 -34 0 -65 80 -53 139 17 87 45 76 43 -17z m3893 -48 c-7 -17 -25
-36 -41 -42 -41 -16 -35 42 7 66 42 23 50 18 34 -24z m-3250 -1800 c32 20 39
17 48 -20 16 -64 250 -302 337 -343 54 -25 70 -43 62 -68 -7 -18 -5 -26 4 -19
16 16 111 -30 180 -86 22 -18 63 -38 90 -43 28 -6 109 -26 180 -46 211 -57
682 -51 870 11 38 13 78 18 88 11 10 -6 39 16 63 51 31 43 49 54 60 37 11 -18
29 -10 68 28 29 29 60 53 70 53 9 0 22 14 29 32 7 18 25 27 41 21 17 -7 58 28
108 94 86 110 200 207 233 196 11 -3 14 0 6 8 -18 18 18 89 45 89 13 0 11 -18
-4 -45 -21 -41 -20 -42 10 -18 29 25 33 23 33 -15 0 -23 -12 -42 -28 -42 -47
0 -81 -56 -53 -89 26 -31 -3 -111 -41 -111 -11 0 -15 -9 -9 -19 7 -10 -8 -30
-33 -43 -42 -22 -44 -22 -18 9 24 30 23 32 -5 21 -30 -11 -41 -43 -36 -98 2
-12 -18 -30 -42 -41 -25 -10 -43 -33 -40 -49 7 -45 -75 -92 -97 -57 -13 19
-17 14 -18 -19 0 -25 -13 -49 -30 -55 -99 -31 -96 -28 -68 -64 15 -19 19 -29
10 -21 -17 14 -23 10 -118 -74 -61 -55 -85 -64 -61 -25 12 20 8 20 -16 0 -17
-13 -37 -19 -44 -11 -7 7 -13 2 -13 -12 0 -13 -8 -19 -18 -13 -10 6 -23 -12
-30 -39 -7 -28 -27 -50 -44 -50 -17 0 -25 -8 -19 -19 14 -21 -12 -40 -71 -51
-50 -10 -101 -70 -88 -105 8 -22 -13 -33 -53 -28 -7 1 -18 -11 -24 -28 -7 -16
-2 -29 9 -29 11 0 14 -10 7 -21 -7 -12 -26 -17 -41 -11 -25 10 -37 -11 -30
-53 4 -31 -97 -78 -140 -64 -34 11 -41 7 -32 -17 7 -20 -4 -34 -32 -42 -70
-18 -94 -14 -94 17 0 18 -12 25 -28 19 -29 -11 -33 78 -5 106 20 20 -49 86
-90 86 -20 0 -37 9 -37 21 0 32 -111 132 -137 123 -20 -6 -27 18 -21 69 0 8
-45 35 -100 62 -72 34 -102 60 -102 87 0 22 -11 38 -25 37 -66 -9 -100 8 -183
93 -50 50 -99 86 -109 80 -10 -7 -24 2 -30 18 -7 17 -23 31 -37 32 -40 3 -197
188 -223 262 -13 36 -41 92 -62 123 -26 39 -31 61 -15 70 16 10 11 32 -17 74
-47 72 -54 141 -8 79 25 -32 37 -35 68 -16z m974 -400 c1 -34 13 -66 25 -70
12 -4 22 -16 22 -26 0 -29 -60 -21 -93 12 -18 18 -21 30 -7 30 12 0 16 10 9
21 -9 14 -25 11 -48 -10 -66 -60 -65 -30 2 46 76 86 85 86 90 -3z m367 13 c0
-13 -17 -19 -40 -13 -44 12 -54 58 -15 71 27 10 54 -20 55 -58z m548 37 c5 -9
1 -29 -9 -45 -19 -29 -58 2 -59 46 0 20 55 19 68 -1z m-667 -65 c52 -27 49
-44 -11 -72 -44 -20 -50 -19 -50 15 0 21 -10 38 -21 38 -12 0 -16 9 -9 20 16
26 43 25 91 -1z"/>
<path d="M5160 10340 c-27 -9 -84 -17 -125 -18 -41 -1 -75 -12 -75 -23 0 -12
10 -15 22 -8 12 7 58 -3 103 -23 61 -28 84 -31 90 -13 5 14 19 25 32 25 14 0
26 18 28 40 3 43 0 44 -75 20z"/>
<path d="M3825 10266 c-25 -5 -45 -17 -45 -26 0 -10 20 -21 45 -26 25 -5 15
-6 -22 -2 -102 10 -187 -12 -174 -45 12 -33 -46 -62 -66 -34 -15 22 -264 5
-263 -18 0 -8 0 -28 0 -43 0 -49 58 -52 231 -12 94 22 211 40 261 40 52 0 103
12 120 29 19 19 51 25 101 17 53 -9 69 -6 59 11 -8 13 -32 23 -55 23 -22 0
-53 14 -70 30 -34 34 -29 35 132 34 60 0 79 5 60 17 -29 18 -229 21 -314 5z"/>
<path d="M4345 10216 c41 -24 75 -51 75 -59 0 -22 -66 6 -91 38 -22 29 -229
15 -229 -15 0 -21 90 -42 123 -30 15 6 89 -12 165 -40 76 -27 161 -50 190 -50
77 -1 121 -34 82 -60 -23 -16 -17 -19 25 -12 30 5 55 3 55 -5 0 -7 49 -35 109
-61 60 -25 113 -58 118 -71 5 -14 56 -49 113 -79 119 -63 119 -36 -1 31 -43
24 -79 52 -79 61 0 24 25 19 69 -15 21 -16 52 -29 69 -29 16 0 48 -17 71 -38
54 -49 135 -75 120 -38 -12 29 -302 177 -346 176 -15 0 -67 27 -117 60 -155
105 -247 145 -309 132 -71 -14 -75 19 -5 42 45 15 48 21 22 42 -24 21 -36 19
-62 -7 -18 -18 -32 -22 -32 -9 0 25 -120 80 -174 80 -23 -1 -8 -17 39 -44z"/>
<path d="M4960 10228 c0 -16 108 -54 148 -52 21 1 65 -20 97 -47 112 -95 317
-169 245 -89 -21 24 -26 40 -13 40 38 0 276 -113 291 -138 19 -30 -19 -28 -52
3 -44 42 -133 75 -146 54 -7 -10 -1 -19 14 -19 14 -1 47 -23 73 -50 64 -68 15
-67 -119 1 -56 28 -127 55 -158 58 -31 4 -75 17 -97 29 -22 12 -66 22 -98 22
-36 0 -87 25 -136 67 -82 69 -209 125 -209 92 0 -10 34 -36 76 -57 42 -22 89
-53 103 -71 32 -38 11 -69 -23 -35 -13 13 -38 24 -55 23 -24 0 -22 -7 9 -31
23 -17 59 -25 85 -19 26 7 45 3 45 -10 0 -35 85 -98 130 -97 29 1 22 9 -25 30
-90 39 -81 51 34 45 54 -2 94 -12 89 -21 -6 -9 -19 -11 -29 -5 -11 6 -19 4
-19 -5 1 -17 190 -131 237 -143 16 -4 22 2 14 15 -24 39 77 24 211 -30 121
-50 517 -134 538 -114 5 5 -9 24 -32 42 -23 19 -47 49 -54 67 -6 18 -61 56
-122 85 -80 38 -115 67 -124 103 -23 91 -508 332 -508 252 0 -17 87 -63 118
-63 27 0 206 -83 198 -91 -4 -4 -52 6 -105 22 -54 16 -128 29 -166 29 -37 0
-105 21 -151 48 -73 41 -314 87 -314 60z"/>
<path d="M3990 10070 c36 -20 82 -28 115 -22 30 6 55 3 55 -6 0 -9 22 -17 49
-17 107 0 -4 51 -141 65 -136 13 -137 12 -78 -20z"/>
<path d="M3746 10027 c-13 -5 -19 -21 -14 -35 7 -17 -33 -41 -116 -71 -69 -25
-160 -72 -201 -104 -42 -33 -109 -73 -150 -91 -99 -42 -46 -59 56 -18 44 18
101 32 128 32 26 0 95 32 154 70 58 39 115 70 127 70 11 0 64 23 118 52 54 29
128 52 165 52 41 0 62 8 54 21 -7 12 -56 16 -119 9 -59 -6 -113 -3 -119 7 -12
20 -43 22 -83 6z"/>
<path d="M3034 9947 c14 -36 77 -45 170 -24 149 33 136 58 -27 52 -105 -3
-149 -12 -143 -28z"/>
<path d="M2990 9900 c7 -11 -7 -20 -30 -20 -23 0 -37 -9 -30 -20 25 -40 107
-23 96 20 -6 22 -19 40 -30 40 -10 0 -13 -9 -6 -20z"/>
<path d="M3670 9764 c-118 -50 -170 -83 -170 -106 0 -19 202 83 249 125 26 23
14 20 -79 -19z"/>
<path d="M3380 9682 c-16 -9 -76 -28 -133 -41 -62 -15 -121 -44 -150 -75 -26
-28 -38 -48 -27 -44 52 20 219 81 300 110 50 17 90 40 90 50 0 22 -40 22 -80
0z"/>
<path d="M3880 9620 c0 -35 6 -37 55 -16 91 39 97 56 19 56 -60 0 -74 -7 -74
-40z"/>
<path d="M4245 9624 c-54 -8 -61 -44 -9 -44 20 0 79 -14 131 -32 96 -33 205
-24 182 14 -8 12 -36 16 -64 8 -29 -7 -57 -3 -65 9 -17 28 -118 54 -175 45z"/>
<path d="M5480 9615 c0 -11 237 -195 251 -195 6 0 -1 20 -15 45 -13 25 -22 52
-20 61 3 10 -3 12 -13 6 -10 -7 -60 12 -111 40 -51 28 -92 48 -92 43z"/>
<path d="M2944 9545 c10 -62 89 -93 89 -35 0 17 -12 30 -26 30 -15 0 -27 9
-27 20 0 11 -9 20 -21 20 -11 0 -18 -16 -15 -35z"/>
<path d="M2834 9478 c20 -34 57 -70 83 -80 39 -15 43 -24 23 -48 -27 -32 19
-42 148 -31 32 2 65 -8 74 -22 11 -16 18 -18 18 -4 0 30 -39 59 -103 74 -29 7
-86 46 -127 87 -100 100 -169 114 -116 24z"/>
<path d="M3240 9482 c0 -8 10 -24 23 -37 28 -28 -121 -11 -152 18 -28 25 -51
21 -51 -11 0 -36 49 -55 165 -63 88 -5 94 -3 90 41 -3 41 -75 91 -75 52z"/>
<path d="M3744 9440 c-102 -46 -98 -70 12 -77 43 -2 98 -8 121 -13 29 -5 43 2
43 23 0 22 -13 28 -40 21 -37 -9 -51 15 -42 71 3 20 6 20 -94 -25z"/>
<path d="M4559 9463 c-16 -5 -35 -17 -41 -28 -8 -11 -41 -11 -87 2 -63 18 -71
17 -50 -8 13 -16 41 -29 63 -29 21 0 86 -26 144 -59 79 -44 105 -51 105 -29 0
16 -21 34 -48 41 -50 13 -40 38 20 50 28 6 24 13 -21 38 -30 18 -68 28 -85 22z"/>
<path d="M3480 9391 c-47 -17 -78 -19 -95 -6 -17 14 -25 13 -25 -3 0 -50 251
-75 269 -27 7 17 7 35 1 41 -5 6 -10 0 -10 -13 0 -12 -9 -23 -20 -23 -11 0
-20 14 -20 30 0 35 -7 35 -100 1z"/>
<path d="M2630 9360 c7 -11 -2 -20 -19 -20 -18 0 -31 -17 -31 -40 0 -42 48
-53 97 -22 19 12 21 21 5 31 -33 20 -27 57 7 44 17 -6 35 -3 42 8 6 10 -16 19
-51 19 -36 0 -57 -8 -50 -20z"/>
<path d="M3357 9282 c-15 -23 -42 -42 -62 -42 -42 0 -44 -14 -8 -49 25 -26 52
-30 285 -36 111 -2 111 -3 65 -38 -38 -29 -40 -36 -13 -37 18 0 48 20 64 44
17 24 38 36 47 27 8 -9 4 -20 -10 -25 -64 -23 -18 -50 71 -42 82 8 96 4 99
-27 2 -27 -12 -38 -51 -39 -111 -4 -161 -35 -54 -33 118 2 154 12 138 38 -7
11 7 25 30 31 23 6 42 21 42 34 0 13 27 33 60 46 33 12 60 14 60 4 0 -28 68
-21 111 11 37 28 37 30 -17 30 -89 1 -42 39 66 53 55 7 94 21 88 32 -7 10 -36
13 -65 8 -29 -6 -102 -16 -163 -23 -60 -6 -128 -16 -150 -23 -22 -7 -67 -13
-100 -15 -33 -1 -71 -9 -84 -17 -13 -8 -28 -8 -33 1 -5 9 -47 16 -91 15 -45
-1 -82 6 -82 14 0 9 10 16 21 16 12 0 17 8 11 17 -6 9 -53 13 -105 8 -73 -6
-101 -1 -120 25 -22 31 -26 31 -50 -8z"/>
<path d="M2460 9284 c0 -57 72 -77 86 -24 8 32 0 40 -38 40 -26 0 -48 -7 -48
-16z"/>
<path d="M2780 9281 c0 -9 27 -27 60 -41 37 -15 59 -38 55 -58 -3 -19 7 -29
25 -25 16 3 45 7 63 9 41 3 27 34 -15 34 -16 0 -48 17 -71 38 -44 42 -117 68
-117 43z"/>
<path d="M2540 9179 c0 -6 11 -22 24 -35 18 -18 9 -26 -39 -36 -36 -7 -78 -35
-96 -62 -38 -59 -23 -84 31 -51 21 14 52 19 69 13 20 -8 31 -1 31 20 0 55 49
35 149 -60 67 -64 107 -88 134 -81 22 5 71 -3 110 -20 89 -37 105 -24 37 29
-29 23 -49 49 -46 57 3 9 -11 20 -31 24 -27 5 -33 -1 -22 -20 8 -15 -4 -9 -27
13 -83 79 -107 93 -136 82 -17 -6 -25 -4 -19 6 6 10 -9 22 -32 29 -32 8 -40
22 -33 61 9 44 4 49 -47 46 -31 -2 -57 -9 -57 -15z"/>
<path d="M2660 9140 c0 -11 28 -20 61 -20 36 0 56 8 49 20 -7 11 -34 20 -61
20 -27 0 -49 -9 -49 -20z"/>
<path d="M2900 9082 c0 -32 50 -57 120 -58 l70 -2 -50 39 c-51 39 -140 53
-140 21z"/>
<path d="M3131 9055 c8 -25 27 -52 42 -61 15 -9 23 -25 16 -35 -6 -11 -3 -19
8 -19 11 0 34 -6 52 -12 24 -10 28 -4 18 23 -12 30 -7 33 35 19 82 -27 301
-35 324 -12 16 16 -17 22 -117 22 -137 1 -286 47 -318 98 -27 43 -75 25 -60
-23z"/>
<path d="M3290 9083 c11 -11 70 -27 130 -34 61 -8 104 -8 97 0 -8 8 -35 17
-60 20 -26 3 -78 12 -117 20 -48 11 -64 9 -50 -6z"/>
<path d="M2431 8912 c-96 -46 -100 -49 -88 -62 12 -11 117 35 117 52 0 6 25 7
56 3 35 -5 66 3 83 23 37 45 -61 36 -168 -16z"/>
<path d="M3055 8917 c13 -17 19 -36 13 -42 -43 -43 466 -43 542 0 42 24 -211
20 -287 -4 -32 -10 -146 17 -253 60 -34 14 -36 12 -15 -14z"/>
<path d="M2840 8803 c0 -26 105 -93 136 -86 14 3 76 -19 137 -48 62 -29 129
-48 151 -42 29 7 36 2 27 -21 -8 -22 -2 -27 20 -18 18 6 45 12 61 12 15 0 28
10 28 22 0 13 -18 18 -40 12 -22 -6 -40 -2 -40 8 0 10 -31 18 -70 18 -68 0
-95 28 -45 45 14 5 -11 25 -55 44 -108 46 -156 54 -171 29 -9 -15 -34 -11 -76
11 -35 17 -63 24 -63 14z"/>
<path d="M4715 8436 c-14 -36 156 -31 194 6 25 23 -20 24 -103 0 -44 -13 -66
-12 -71 4 -4 12 -13 8 -20 -10z"/>
<path d="M2506 8367 c-15 -39 3 -53 51 -38 60 19 66 61 9 64 -27 2 -54 -10
-60 -26z"/>
<path d="M5320 8270 c0 -23 -11 -29 -40 -20 -54 17 -120 -18 -70 -37 18 -7 43
-7 54 -1 11 7 28 2 36 -12 24 -39 74 -9 70 42 -4 52 -50 78 -50 28z"/>
<path d="M4464 8219 c-25 -23 -53 -36 -64 -29 -11 7 -21 3 -22 -9 -5 -40 -9
-51 -24 -76 -31 -48 7 -24 86 55 72 72 93 100 74 100 -4 0 -26 -18 -50 -41z"/>
<path d="M3356 8230 c-5 -6 -62 -24 -125 -41 -164 -42 -209 -75 -82 -58 97 12
313 106 249 108 -17 1 -36 -4 -42 -9z"/>
<path d="M4100 8080 c0 -12 -23 -16 -55 -9 -46 10 -49 8 -20 -11 19 -12 35
-35 35 -50 0 -17 12 -24 30 -17 19 7 30 -1 30 -22 0 -19 9 -28 21 -20 12 7 17
26 11 42 -7 16 -3 24 7 18 34 -21 42 25 10 57 -36 36 -69 42 -69 12z"/>
<path d="M3625 8041 c-49 -41 -57 -61 -23 -61 32 0 119 73 104 87 -19 19 -32
15 -81 -26z"/>
<path d="M5182 8061 c-18 -11 -16 -21 6 -39 30 -25 72 -15 72 17 0 25 -50 39
-78 22z"/>
<path d="M3930 8040 c-7 -11 -3 -20 9 -20 11 0 21 -13 21 -28 0 -19 14 -25 41
-18 l41 11 -40 38 c-46 43 -55 45 -72 17z"/>
<path d="M3737 8017 c-30 -10 -59 -32 -65 -48 -13 -36 11 -38 45 -4 13 13 39
25 57 25 18 0 36 11 41 25 10 29 -5 29 -78 2z"/>
<path d="M4843 7842 c-21 -13 -20 -19 7 -29 64 -25 98 -16 70 17 -28 34 -39
36 -77 12z"/>
<path d="M5500 7739 c-71 -10 -157 -22 -190 -27 -33 -5 -89 -10 -124 -11 -70
-1 -195 -96 -151 -114 14 -6 25 -22 25 -35 0 -18 41 -26 130 -28 72 -1 139 -7
150 -14 22 -14 279 37 405 79 105 36 197 17 225 -45 22 -49 61 -61 43 -14 -10
26 -5 27 29 9 22 -12 45 -35 51 -50 12 -31 107 -41 107 -12 0 36 -79 116 -191
193 -129 89 -247 105 -509 69z"/>
<path d="M3267 7647 c-89 -59 -222 -182 -248 -229 -23 -42 69 -47 103 -5 13
15 38 27 55 27 18 0 56 11 83 25 28 14 113 24 190 22 338 -7 521 -9 537 -8 10
0 7 15 -7 31 -14 17 -16 30 -5 30 11 0 31 -13 45 -30 33 -40 52 -38 100 10
l41 41 -51 47 c-46 43 -76 49 -296 61 -134 7 -295 17 -357 22 -96 7 -125 0
-190 -44z"/>
<path d="M4627 7485 c-38 -25 -41 -113 -4 -121 24 -4 35 12 41 65 8 73 3 81
-37 56z"/>
<path d="M5104 7386 c-26 -5 -43 -20 -39 -32 9 -25 -31 -74 -59 -74 -10 0 -17
-29 -17 -65 1 -74 22 -76 126 -12 69 43 81 68 40 83 -14 5 25 33 85 61 l110
51 -100 -2 c-55 -1 -121 -5 -146 -10z"/>
<path d="M3991 7361 c-8 -12 -46 -21 -86 -21 -87 0 -67 -23 50 -60 47 -15 96
-39 108 -53 12 -15 33 -27 47 -27 14 0 36 -13 50 -30 29 -35 140 17 140 66 0
88 -123 165 -199 124 -32 -17 -51 -17 -70 0 -19 15 -31 15 -40 1z m200 -73
c38 -29 63 -61 57 -72 -7 -11 -31 -2 -55 20 -24 21 -59 44 -79 51 -20 7 -31
22 -24 33 18 28 25 26 101 -32z"/>
<path d="M5453 7355 c-13 -8 10 -15 51 -15 112 0 279 -71 356 -150 76 -79 53
-95 -33 -24 -185 152 -540 132 -716 -39 -40 -39 -70 -81 -65 -94 13 -39 454
-91 454 -53 0 11 -26 20 -57 20 -32 0 -95 13 -141 29 -90 32 -85 31 -142 31
-62 0 -48 26 45 81 85 52 262 71 250 28 -3 -10 -30 -16 -61 -13 -51 6 -55 3
-37 -31 62 -114 187 -115 261 -1 l48 75 58 -42 c85 -60 1 -153 -143 -156 -46
-1 -47 -3 -12 -28 26 -18 33 -39 23 -64 -8 -21 -8 -31 0 -24 8 8 28 3 45 -10
26 -22 28 -16 17 42 -14 66 -13 66 49 52 52 -11 70 -5 98 33 31 40 39 42 69
18 28 -23 36 -23 51 1 10 16 19 19 19 7 0 -32 96 -71 111 -46 16 25 -27 78
-63 78 -31 0 -38 33 -9 43 23 9 -10 52 -96 122 -68 57 -64 77 6 24 51 -39 83
-37 50 2 -74 89 -401 159 -486 104z"/>
<path d="M4924 7319 c-82 -76 -26 -85 66 -10 53 44 56 50 19 50 -23 1 -61 -17
-85 -40z"/>
<path d="M3387 7230 c-132 -66 -194 -134 -198 -219 l-4 -67 91 38 c81 35 93
36 123 9 19 -17 55 -31 80 -31 32 0 42 -9 34 -30 -7 -16 -2 -30 9 -30 11 0 14
-10 7 -22 -10 -15 -1 -15 29 1 23 12 42 30 42 39 0 9 20 26 45 38 43 21 43 21
-14 23 -32 0 -99 20 -148 44 l-89 43 68 57 c80 66 98 70 98 20 0 -43 72 -113
136 -133 57 -17 117 31 158 126 l28 67 64 -41 c82 -52 84 -106 4 -124 -259
-59 -231 -90 46 -51 l166 23 -51 68 c-163 221 -529 245 -760 49 -43 -37 -86
-67 -96 -67 -10 0 29 41 87 90 58 50 117 90 131 90 13 0 30 9 37 20 20 32 -15
23 -123 -30z m322 -69 c7 -10 3 -24 -8 -30 -24 -15 -124 8 -112 27 13 21 108
23 120 3z"/>
<path d="M4290 7140 c30 -33 31 -44 9 -72 -43 -51 -45 -109 -4 -94 99 34 90
206 -11 206 -25 0 -25 -6 6 -40z"/>
<path d="M3717 6913 c-131 -32 -146 -58 -27 -43 153 18 208 31 221 52 15 23
-76 19 -194 -9z"/>
<path d="M5280 6896 c50 -22 106 -49 125 -59 49 -24 44 -1 -10 46 -45 39 -45
39 -1 18 56 -27 166 -27 166 0 0 12 -9 16 -21 8 -11 -7 -32 -4 -45 7 -13 11
-87 20 -164 21 l-140 1 90 -42z"/>
<path d="M4147 6890 c-7 -18 -25 -28 -40 -22 -15 6 -28 4 -29 -4 0 -8 -4 -29
-8 -48 -5 -26 3 -30 36 -18 55 20 104 93 75 111 -12 8 -27 -1 -34 -19z"/>
<path d="M5000 6890 c0 -12 128 -129 229 -209 46 -37 86 -53 112 -46 36 9 32
16 -35 61 -42 28 -107 76 -146 108 -38 32 -81 66 -94 77 -26 20 -66 26 -66 9z"/>
<path d="M6100 6826 c0 -35 9 -69 20 -76 26 -16 26 70 0 110 -15 23 -19 15
-20 -34z"/>
<path d="M6270 6761 c4 -22 -1 -45 -11 -52 -28 -17 -23 -69 7 -69 29 0 41 133
13 151 -9 5 -13 -8 -9 -30z"/>
<path d="M2972 6711 c-29 -44 -29 -51 -2 -51 16 0 30 9 30 20 0 11 19 20 42
20 24 0 38 10 33 25 -15 45 -69 38 -103 -14z"/>
<path d="M4317 6645 c-2 -8 -4 -28 -6 -45 -2 -16 -13 -28 -26 -25 -12 2 -28
-13 -35 -34 -6 -20 -23 -42 -38 -47 -14 -6 -79 -81 -143 -167 -65 -86 -125
-160 -134 -164 -9 -4 -6 -19 6 -34 13 -15 19 -39 14 -53 -25 -70 93 -196 184
-196 47 0 46 3 -24 50 -126 86 -148 180 -70 300 40 62 71 84 145 103 79 20
134 44 105 45 -19 1 -35 16 -35 32 0 17 11 28 25 25 15 -3 23 13 20 40 -2 25
4 45 15 45 10 0 14 12 8 27 -6 15 4 33 21 40 17 6 25 24 19 42 -13 32 -46 42
-51 16z"/>
<path d="M4762 6572 c-18 -21 -14 -29 16 -37 48 -13 63 -1 48 37 -13 35 -35
36 -64 0z"/>
<path d="M4875 6496 c-110 -38 -49 -115 133 -169 186 -55 198 -296 21 -400
-54 -31 -20 -58 46 -35 87 30 151 142 136 237 -29 181 -232 403 -336 367z"/>
<path d="M3657 6422 c-19 -30 -34 -34 -72 -20 -37 14 -46 12 -37 -7 7 -14 18
-41 25 -61 16 -47 51 -34 83 32 18 37 42 54 75 54 27 0 49 9 49 20 0 36 -99
21 -123 -18z"/>
<path d="M4133 6127 c-20 -21 106 -124 169 -138 53 -11 118 22 118 60 0 52
-245 119 -287 78z"/>
<path d="M4830 6117 c-22 -12 -65 -46 -96 -74 -50 -47 -102 -61 -239 -65 -64
-1 -37 -53 33 -62 86 -10 175 14 197 53 10 19 45 31 85 31 80 0 235 74 224
107 -10 31 -155 38 -204 10z"/>
<path d="M4725 5846 c-14 -5 -25 -22 -25 -37 0 -15 12 -23 27 -17 16 6 40 -2
55 -17 55 -54 93 -55 103 -2 6 28 0 53 -12 57 -60 18 -125 25 -148 16z"/>
<path d="M4267 5803 c-23 -18 -48 -57 -55 -87 -7 -30 -37 -78 -67 -105 -30
-28 -43 -51 -29 -51 15 0 21 -9 14 -20 -7 -12 -20 -16 -30 -10 -9 6 -20 -5
-24 -24 -4 -24 -27 -36 -71 -38 -60 -3 -64 0 -52 49 13 53 13 53 -40 -10 -31
-37 -80 -68 -119 -75 -42 -8 -67 -25 -69 -47 -2 -19 -8 -68 -13 -107 -8 -59
-2 -76 29 -90 39 -18 39 -19 -1 -98 -24 -46 -32 -83 -20 -87 40 -13 19 -43
-30 -43 -31 0 -50 -11 -50 -30 0 -32 33 -35 130 -10 33 8 45 16 27 18 -23 1
-30 14 -23 42 6 23 1 40 -13 40 -15 0 -12 12 8 32 65 65 77 109 39 150 -38 42
94 211 142 182 28 -17 156 -4 180 18 13 13 10 26 -10 38 -16 10 -25 21 -19 24
5 3 39 33 77 66 l67 60 -33 -64 c-41 -83 -40 -92 8 -66 22 12 37 28 35 37 -3
8 21 39 53 69 48 45 52 55 25 66 -18 7 -33 25 -33 40 0 15 -11 28 -24 28 -18
0 -18 6 -2 22 13 13 18 34 13 49 -5 14 6 29 27 33 20 4 27 13 15 20 -11 7 -39
-2 -62 -21z"/>
<path d="M4354 5753 c-44 -36 -51 -51 -30 -67 47 -36 77 -49 74 -32 -6 37 4
62 30 72 19 8 24 0 17 -27 -6 -27 1 -39 22 -39 47 0 18 -56 -32 -64 -53 -8
-71 -56 -21 -56 21 0 50 -11 65 -25 22 -20 25 -19 15 10 -8 22 -3 35 14 35 15
0 32 -19 38 -42 6 -23 20 -37 31 -30 11 7 23 1 28 -12 5 -17 26 -11 64 20 31
24 69 44 85 44 22 0 19 14 -13 58 -22 32 -41 68 -41 79 0 12 -19 32 -43 45
-37 20 -41 18 -30 -11 7 -19 13 -52 13 -73 0 -26 15 -39 45 -40 38 -1 34 -6
-22 -31 -80 -34 -154 18 -91 66 26 20 26 24 -1 34 -17 6 -31 30 -31 53 0 26
-19 48 -51 60 -68 26 -70 26 -135 -27z"/>
<path d="M4885 5710 c-54 -23 -57 -41 -11 -59 30 -11 31 -16 5 -32 -43 -27
-53 -24 -66 25 -6 24 -17 39 -23 33 -27 -28 38 -117 85 -117 35 0 46 -9 38
-29 -9 -24 -2 -26 39 -10 63 24 68 24 68 -2 0 -12 -9 -16 -20 -9 -11 7 -20 -2
-20 -19 0 -38 53 -41 90 -3 59 59 -25 252 -92 211 -18 -11 -32 -9 -38 7 -7 18
-23 19 -55 4z"/>
<path d="M5148 5537 c-7 -12 1 -31 19 -41 18 -10 33 -28 33 -41 0 -17 -6 -17
-24 1 -28 28 -96 32 -96 6 0 -32 52 -61 129 -70 42 -5 86 -19 98 -31 33 -33
73 -25 72 14 -1 48 -40 96 -92 113 -24 7 -54 27 -68 43 -29 35 -52 37 -71 6z"/>
<path d="M4769 5399 c-6 -11 -32 -19 -56 -19 -25 0 -54 -9 -64 -19 -13 -13
-54 -9 -117 9 -103 32 -177 20 -382 -58 -44 -17 -105 -31 -136 -31 -74 -1
-134 -34 -134 -74 0 -23 13 -28 48 -19 40 10 47 5 38 -25 -5 -21 3 -42 19 -48
21 -9 26 1 20 37 -11 55 24 64 73 20 61 -55 182 -63 182 -13 0 29 -8 39 -25
28 -17 -10 -16 -4 2 19 33 40 51 45 33 9 -7 -14 -1 -11 14 5 19 22 68 30 176
30 83 0 159 5 170 11 11 6 103 8 205 3 200 -9 234 -32 120 -83 -116 -53 -7
-47 125 6 129 52 193 56 185 10 -3 -15 8 -9 25 13 57 72 31 99 -110 112 -72 6
-157 25 -190 42 -76 39 -206 59 -221 35z"/>
<path d="M5434 5407 c-26 -25 -14 -108 16 -120 38 -14 40 -67 2 -67 -34 0 -56
-75 -27 -93 12 -7 32 2 45 20 14 18 34 33 45 33 14 0 12 35 -6 103 -28 108
-52 147 -75 124z"/>
<path d="M5812 5237 c-27 -32 -27 -38 5 -61 20 -14 46 -44 59 -66 19 -34 23
-35 23 -6 1 18 -8 39 -19 46 -30 19 -24 50 10 50 17 0 30 9 30 20 0 34 37 22
46 -15 7 -26 10 -24 12 10 1 25 -5 46 -13 48 -74 12 -128 3 -153 -26z"/>
<path d="M5821 5098 c-1 -18 -7 -61 -13 -95 -8 -37 -5 -63 7 -63 29 0 48 118
26 157 -18 30 -20 30 -20 1z"/>
<path d="M5040 5070 c0 -36 -33 -40 -46 -5 -5 14 -16 18 -25 10 -9 -9 -1 -31
18 -50 34 -33 37 -33 64 4 28 37 29 37 29 1 0 -20 5 -31 12 -25 17 17 -11 95
-33 95 -11 0 -19 -13 -19 -30z"/>
<path d="M4227 4990 c2 -27 10 -50 18 -50 8 0 32 -15 53 -33 90 -77 282 -100
282 -33 0 24 5 24 31 -3 39 -38 49 -39 102 -2 22 16 78 28 124 26 62 -3 95 8
127 40 56 56 33 81 -34 37 -46 -30 -52 -30 -63 -2 -6 17 -27 29 -44 26 -18 -3
-43 1 -55 9 -41 26 -348 -8 -348 -38 0 -43 -52 -31 -103 23 -60 63 -94 63 -90
0z"/>
<path d="M5429 4948 c-24 -108 -52 -187 -70 -198 -10 -7 0 -29 22 -51 43 -43
79 -51 79 -18 0 12 8 16 18 10 10 -6 35 -5 55 3 32 12 31 16 -13 26 -37 9 -48
23 -44 54 3 24 -4 48 -15 55 -48 30 -20 64 44 55 56 -7 61 -4 35 19 -16 15
-45 44 -64 65 -33 37 -34 37 -47 -20z"/>
<path d="M5263 4925 c-12 -22 -17 -44 -12 -49 5 -5 -14 -21 -41 -36 -28 -15
-50 -39 -50 -53 0 -42 34 -32 46 13 7 27 27 40 62 40 29 0 52 9 52 20 0 11
-11 20 -25 20 -17 1 -15 7 5 19 22 15 24 25 7 42 -18 18 -29 14 -44 -16z"/>
<path d="M4625 4665 c-36 -12 -31 -45 7 -45 20 0 28 -11 21 -29 -10 -26 20
-66 36 -48 16 19 -42 130 -64 122z"/>
<path d="M5290 4598 c50 -86 170 -141 170 -77 0 12 -10 15 -21 8 -12 -7 -42 4
-65 26 -64 57 -104 78 -84 43z"/>
<path d="M5214 4511 c-34 -25 -32 -29 28 -59 93 -46 107 -31 43 45 -30 36 -40
38 -71 14z"/>
<path d="M4484 4398 c-20 -32 -21 -48 -3 -70 29 -35 65 -37 54 -3 -4 13 4 37
20 53 23 23 23 31 1 45 -37 24 -43 22 -72 -25z"/>
<path d="M3571 4262 c-14 -23 46 -86 69 -72 12 7 35 2 51 -11 17 -14 36 -19
42 -12 7 6 -2 18 -20 25 -18 7 -33 24 -33 38 0 26 -95 54 -109 32z"/>
<path d="M4740 3665 c-16 -6 -37 -23 -46 -38 -9 -15 -29 -27 -45 -27 -16 0
-29 -18 -29 -40 0 -50 64 -54 103 -7 24 30 22 33 -23 21 -45 -11 -43 -7 20 46
71 60 74 66 20 45z"/>
<path d="M6162 4420 c-1 -17 21 -93 50 -170 157 -424 137 -617 -149 -1460 -20
-59 -51 -234 -112 -640 -81 -536 -87 -648 -35 -665 19 -7 22 5 13 43 -18 71
-16 127 9 232 12 50 36 175 52 279 17 104 39 216 49 250 33 111 69 340 65 415
-3 49 15 113 56 192 33 65 60 145 60 178 0 32 12 74 26 93 36 50 26 -94 -33
-467 -18 -115 -51 -358 -73 -540 -22 -181 -63 -465 -90 -630 -27 -165 -67
-408 -89 -540 -38 -231 -159 -762 -190 -835 -14 -33 67 -35 1547 -35 l1562 0
0 1425 -1 1425 -324 119 c-179 65 -469 185 -645 267 -325 151 -453 199 -650
244 -60 14 -128 32 -150 41 -34 14 -197 54 -368 91 -66 14 -291 224 -366 342
-34 53 -86 132 -116 176 -30 44 -64 107 -76 140 -11 33 -22 46 -22 30z m538
-898 c15 -18 60 -26 166 -30 53 -2 103 -13 110 -25 8 -11 43 -33 79 -48 36
-16 65 -40 65 -54 0 -14 10 -25 21 -25 30 0 80 -52 65 -68 -7 -6 3 -12 22 -12
19 0 29 9 22 20 -7 11 -4 20 7 20 11 0 24 -11 29 -25 5 -14 16 -18 25 -10 9 9
6 26 -7 39 -30 30 -31 96 -2 96 12 0 26 -17 32 -38 6 -25 22 -34 48 -27 21 5
78 -9 128 -33 49 -23 99 -42 110 -42 11 0 36 -8 55 -19 51 -27 113 -48 130
-44 8 2 15 -5 15 -15 0 -10 27 -27 60 -39 33 -12 60 -28 60 -38 0 -9 29 -19
65 -21 36 -3 75 -18 87 -34 12 -17 33 -30 46 -30 14 0 23 -16 21 -35 -7 -70 2
-74 39 -18 46 70 47 71 90 28 19 -19 59 -40 88 -47 68 -14 146 -50 181 -83 14
-14 34 -20 44 -14 20 12 101 -62 85 -79 -28 -28 -24 -134 6 -146 25 -9 26 -15
5 -28 -21 -13 -22 -21 -2 -41 36 -36 31 -57 -12 -57 -39 0 -39 -88 -1 -111 25
-16 22 -189 -3 -189 -29 0 -18 -141 16 -197 15 -25 22 -52 16 -59 -7 -7 -20
-1 -29 13 -12 19 -20 12 -27 -25 -6 -35 -1 -52 18 -52 15 0 27 -18 27 -40 0
-22 -10 -40 -21 -40 -12 0 -16 -9 -9 -20 7 -12 21 -15 31 -9 25 15 24 -4 -1
-51 -13 -25 -13 -42 0 -50 13 -8 13 -25 -1 -51 -13 -25 -14 -52 -2 -73 12 -22
11 -46 -4 -70 -17 -27 -17 -46 2 -76 27 -42 34 -75 12 -54 -29 29 -65 -31 -54
-88 7 -32 3 -58 -7 -58 -11 0 -19 -13 -19 -29 0 -16 6 -25 13 -21 8 5 31 -5
52 -22 21 -17 28 -26 15 -20 -25 13 -25 -242 0 -284 10 -15 2 -24 -21 -25 -29
-1 -27 -5 9 -20 25 -10 45 -28 45 -40 0 -12 -9 -16 -20 -9 -34 21 -62 -9 -43
-46 22 -43 8 -84 -29 -84 -42 0 -34 -35 12 -50 61 -19 44 -150 -22 -175 -26
-9 -67 -35 -90 -57 -48 -45 -100 -34 -119 26 -10 29 -19 34 -35 18 -12 -12
-39 -22 -59 -22 -29 0 -35 -10 -24 -42 10 -33 5 -40 -24 -34 -27 5 -36 23 -33
64 4 51 0 55 -50 43 -68 -17 -106 -51 -57 -51 20 0 30 -9 23 -20 -16 -27 -204
-26 -221 1 -9 14 -21 14 -40 -2 -71 -58 -85 12 -21 106 26 39 54 99 62 134 7
35 27 69 44 75 20 8 26 29 19 66 -7 34 2 72 22 101 19 27 35 82 37 125 3 42
20 94 39 115 19 22 26 39 15 39 -12 0 -26 25 -33 55 -11 54 -197 265 -233 265
-11 0 -33 27 -50 60 -20 39 -46 60 -74 60 -42 0 -42 -2 10 -56 30 -31 55 -74
55 -95 2 -37 3 -37 16 -2 14 33 18 32 54 -15 21 -29 50 -52 64 -52 14 0 25
-13 25 -29 0 -15 20 -45 45 -65 69 -55 54 -258 -29 -399 -22 -36 -36 -86 -32
-111 4 -35 -5 -48 -39 -52 -49 -7 -60 -35 -20 -50 18 -6 13 -32 -20 -96 -25
-49 -45 -100 -45 -114 0 -36 -82 -62 -134 -42 -26 10 -49 9 -56 -3 -15 -23
-90 -25 -90 -2 0 9 -13 16 -30 16 -16 0 -30 -13 -30 -29 0 -20 -8 -23 -25 -10
-26 21 -331 24 -365 5 -62 -36 -268 15 -210 51 11 7 20 21 20 31 0 11 -9 19
-20 19 -11 0 -20 -9 -20 -21 0 -38 -75 -104 -90 -80 -10 17 -21 16 -43 -1 -22
-18 -34 -19 -52 -1 -32 32 -105 29 -135 -7 -34 -41 -63 -38 -56 5 5 26 -7 34
-44 32 -110 -5 -160 -17 -160 -36 0 -12 -9 -9 -18 7 -11 17 -35 23 -65 16 -34
-9 -60 2 -94 37 -26 27 -55 49 -64 49 -9 0 -15 18 -14 40 2 22 15 40 29 40 14
0 26 14 26 30 0 19 20 30 55 30 41 1 48 5 26 19 -16 10 -38 13 -48 7 -12 -8
-14 20 -6 70 8 48 5 87 -7 94 -30 18 -1 55 32 42 30 -11 38 11 13 36 -41 41
-16 215 29 206 42 -8 43 -6 14 49 -33 64 16 114 54 55 11 -18 17 -20 18 -4 0
13 -17 35 -37 50 -42 30 -49 96 -10 96 37 0 34 39 -4 53 -27 11 -27 17 0 59
17 25 31 60 31 77 0 17 11 31 24 31 19 0 19 5 0 24 -28 28 -32 116 -6 116 10
0 19 42 19 93 0 51 9 98 20 105 12 8 14 24 4 41 -12 18 -3 39 26 63 39 32 40
36 8 49 -43 17 -46 49 -4 49 23 0 28 12 18 43 -9 28 -6 38 9 28 12 -7 22 -1
22 15 0 16 -18 34 -40 40 -60 15 -48 48 30 85 39 19 70 42 70 51 0 26 -35 22
-45 -6 -4 -12 -18 -17 -31 -9 -30 19 13 93 55 93 20 0 18 8 -10 29 -22 15 -42
20 -46 10 -3 -11 -14 -19 -23 -19 -9 0 -3 27 13 60 34 69 67 79 67 20 0 -22 9
-40 20 -40 25 0 -10 93 -51 134 -17 17 -28 49 -25 72 7 49 56 71 56 26 0 -36
31 -43 50 -12 7 11 3 20 -9 20 -11 0 -21 18 -21 40 0 22 -9 40 -20 40 -11 0
-20 -11 -20 -24 0 -19 -5 -19 -24 0 -19 19 -17 32 9 57 40 41 84 13 103 -64 7
-27 26 -49 42 -49 17 0 30 -9 30 -20 0 -11 -15 -20 -34 -20 -25 0 -28 -6 -11
-23 50 -50 96 38 47 90 -23 25 -42 56 -42 69 0 13 -8 24 -17 24 -9 0 -34 34
-55 75 -21 41 -43 80 -50 85 -26 22 -33 101 -10 115 13 8 23 36 23 63 -1 27
16 57 39 70 53 29 70 55 54 81 -20 32 -20 151 0 164 10 6 7 23 -5 39 -32 38
-10 36 29 -3 42 -42 78 -17 63 44 -12 46 72 53 109 9z"/>
<path d="M6573 3427 c-26 -27 -12 -58 27 -58 25 0 40 13 40 35 0 35 -40 49
-67 23z"/>
<path d="M7335 3219 c34 -36 32 -79 -4 -79 -24 0 -24 -10 5 -60 19 -33 41 -60
49 -60 8 0 15 -13 15 -30 0 -16 9 -30 20 -30 10 0 25 -22 31 -49 14 -55 78
-120 104 -104 9 5 18 -8 20 -31 1 -22 7 -44 11 -49 16 -15 74 17 63 35 -6 10
0 18 13 18 14 0 19 6 12 13 -7 7 -26 2 -42 -11 -24 -20 -30 -16 -35 22 -4 25
-27 55 -52 66 -40 17 -50 36 -43 85 1 8 10 13 20 10 26 -7 22 30 -4 46 -12 8
-30 2 -39 -13 -9 -15 -20 -23 -24 -17 -75 93 -98 145 -73 160 32 21 5 81 -43
95 -23 7 -24 4 -4 -17z"/>
<path d="M6529 3008 c6 -49 39 -87 77 -88 20 0 -2 79 -31 115 -32 40 -52 29
-46 -27z"/>
<path d="M7620 2635 c1 -50 39 -89 40 -40 0 25 10 45 23 45 14 0 18 -22 10
-60 -11 -54 -7 -60 38 -60 37 0 49 9 45 35 -13 74 -157 148 -156 80z"/>
<path d="M7580 2293 c-83 -78 -190 -186 -239 -239 l-88 -96 83 -77 c46 -42 84
-86 84 -99 0 -20 27 -30 65 -24 8 1 15 -9 16 -23 1 -57 239 -259 239 -203 0
12 -175 183 -196 191 -25 10 -164 207 -164 233 0 12 25 34 55 49 43 21 54 39
49 81 -4 42 3 54 34 54 22 0 60 29 85 65 25 36 50 70 56 75 58 54 97 115 85
134 -9 15 -68 -28 -164 -121z"/>
<path d="M6740 2404 c0 -25 45 -64 74 -64 21 0 22 8 1 40 -24 39 -75 55 -75
24z"/>
<path d="M7990 2340 c7 -11 -1 -15 -18 -8 -21 8 -29 -1 -27 -30 3 -32 14 -39
53 -32 55 10 108 -23 89 -55 -7 -12 -4 -15 8 -8 32 19 4 97 -38 108 -20 5 -32
18 -26 27 6 10 -3 18 -21 18 -18 0 -27 -9 -20 -20z"/>
<path d="M6851 2275 c8 -25 22 -48 32 -52 10 -4 31 -20 47 -36 27 -26 30 -24
30 22 0 38 -10 51 -40 51 -22 0 -40 13 -40 30 0 17 -10 30 -21 30 -13 0 -16
-18 -8 -45z"/>
<path d="M7025 2100 c-1 -23 6 -35 18 -28 11 7 42 -8 68 -33 67 -62 85 -35 26
39 -55 69 -107 80 -112 22z"/>
<path d="M6355 1406 c-21 -5 -35 -28 -35 -57 0 -63 52 -45 65 22 5 27 8 48 7
47 -1 -2 -18 -7 -37 -12z"/>
<path d="M6882 922 c-33 -21 -16 -54 34 -67 28 -7 36 1 34 32 -4 47 -28 60
-68 35z"/>
<path d="M6916 761 c12 -65 40 -101 79 -101 17 0 42 -15 55 -34 33 -44 294
-61 278 -17 -6 15 -26 25 -44 21 -19 -3 -63 12 -98 34 -49 29 -74 33 -103 18
-28 -15 -44 -14 -58 3 -21 28 -52 100 -50 116 1 6 -14 10 -33 10 -26 0 -33
-12 -26 -50z"/>
<path d="M2949 4264 c-84 -101 -229 -317 -229 -341 0 -43 -109 -102 -246 -132
-198 -45 -453 -133 -964 -336 -154 -61 -401 -154 -550 -205 -148 -52 -398
-154 -555 -227 l-284 -133 -1 -1385 0 -1385 1540 0 c847 0 1540 5 1540 10 0 6
-28 166 -61 355 -55 308 -120 761 -179 1255 -26 210 -54 901 -38 911 17 11 53
-75 69 -164 7 -42 25 -113 38 -157 14 -44 32 -152 39 -240 24 -279 92 -452 92
-234 0 128 29 166 52 69 8 -30 25 -77 38 -105 14 -27 41 -86 61 -130 24 -53
39 -69 44 -47 6 30 -44 165 -100 267 -59 107 -77 157 -132 370 -83 319 -101
406 -134 632 -16 109 -38 252 -49 318 -71 416 -64 605 33 916 60 191 55 214
-24 118z m-245 -651 c-33 -43 -23 -173 13 -175 29 -2 28 -4 -2 -12 -37 -9 -50
-66 -15 -66 11 0 20 -13 20 -30 0 -16 9 -30 20 -30 11 0 20 -36 20 -80 0 -55
-9 -80 -28 -80 -15 0 -33 -14 -40 -31 -6 -18 -22 -25 -35 -17 -14 9 -18 5 -9
-8 8 -13 38 -18 73 -11 66 13 86 -71 36 -151 -14 -22 -17 -52 -7 -74 23 -54
27 -168 6 -181 -10 -6 -12 -38 -5 -71 9 -42 5 -67 -14 -78 -19 -13 -21 -22 -4
-33 32 -22 28 -125 -5 -125 -16 0 -28 -9 -28 -20 0 -11 -29 -17 -65 -14 -53 5
-65 14 -63 50 1 45 -33 51 -47 9 -17 -52 76 -110 157 -97 78 13 97 -1 56 -42
-16 -16 -15 -34 1 -65 13 -24 17 -61 8 -87 -8 -24 -13 -52 -10 -61 9 -36 -21
-93 -50 -93 -16 0 -24 -9 -18 -19 7 -11 27 -14 45 -7 27 11 30 2 20 -49 -8
-40 -4 -65 12 -71 23 -9 9 -17 -76 -43 -16 -6 -30 -19 -30 -31 0 -15 12 -15
39 -1 56 30 115 26 129 -10 8 -22 1 -30 -23 -28 -66 7 -84 -1 -72 -31 6 -16
34 -30 62 -30 29 0 45 -7 37 -15 -9 -8 -26 -15 -39 -15 -31 0 -30 -59 2 -62
14 -2 36 -4 48 -5 26 -3 19 -17 -13 -25 -62 -16 -84 -118 -26 -118 12 0 16
-22 11 -50 -5 -28 -2 -50 6 -50 9 0 16 -27 15 -61 -1 -33 8 -71 21 -84 13 -13
23 -37 23 -54 -1 -27 -3 -27 -19 -1 -14 21 -25 24 -41 8 -16 -16 -8 -31 29
-55 62 -41 70 -103 11 -87 -33 9 -36 4 -19 -28 11 -21 30 -38 42 -38 12 0 17
-19 10 -44 -6 -24 -1 -56 11 -70 17 -21 14 -24 -11 -14 -18 7 -33 2 -33 -10 0
-12 14 -22 30 -22 17 0 30 -17 30 -38 0 -21 11 -43 25 -47 18 -7 15 -20 -11
-50 -26 -29 -30 -45 -14 -55 13 -8 18 -28 11 -44 -7 -18 8 -45 37 -68 32 -25
45 -51 38 -78 -13 -47 -57 -52 -99 -10 -35 35 -69 39 -62 8 3 -13 -6 -26 -20
-29 -15 -3 -17 -1 -5 4 23 12 7 47 -21 47 -11 0 -38 -19 -62 -43 -36 -36 -49
-39 -82 -19 -30 19 -45 19 -68 0 -23 -20 -49 -20 -125 0 -53 13 -120 18 -149
11 -35 -9 -70 -2 -102 19 -58 37 -79 41 -60 10 8 -12 2 -30 -13 -40 -39 -25
-59 -22 -53 7 3 15 -13 23 -39 20 -34 -3 -42 4 -32 30 7 19 6 29 -2 22 -8 -7
-17 -29 -20 -49 -3 -20 -17 -40 -32 -45 -15 -5 -20 1 -12 14 10 16 -9 23 -56
23 -38 0 -75 -9 -82 -20 -16 -26 -96 -13 -106 17 -4 13 -34 23 -67 23 -33 0
-55 -7 -50 -15 5 -8 -12 -16 -39 -18 -29 -2 -48 8 -48 25 0 32 -4 33 -48 16
-18 -7 -32 -25 -32 -40 0 -23 -7 -24 -40 -3 -30 19 -49 19 -75 2 -65 -42 -145
26 -141 119 2 48 -8 84 -26 95 -15 10 -21 19 -12 19 8 0 4 20 -10 45 -13 25
-23 52 -20 60 2 8 -7 15 -19 15 -13 0 -18 5 -11 12 6 7 -5 54 -24 105 -20 51
-32 104 -28 118 5 14 0 25 -12 25 -11 0 -16 12 -11 26 6 15 -9 44 -33 65 l-44
39 15 -60 c7 -33 16 -78 19 -100 9 -66 35 -138 62 -170 14 -16 30 -70 36 -120
5 -49 20 -130 33 -179 31 -121 -26 -194 -97 -123 -44 44 -64 53 -60 27 7 -40
-6 -43 -53 -13 -27 18 -53 30 -57 26 -3 -5 -16 -26 -28 -48 -19 -32 -23 -34
-23 -7 -1 26 -17 32 -76 26 -269 -27 -263 -28 -305 31 -29 41 -36 73 -27 120
9 44 4 69 -15 82 -22 13 -19 18 12 18 22 0 31 7 20 15 -26 19 -33 55 -34 155
0 123 2 130 34 130 17 0 30 13 30 28 0 15 -16 26 -35 25 -23 -2 -37 14 -42 47
-4 28 -16 61 -27 75 -15 18 -12 25 12 25 36 0 43 31 10 51 -15 10 -15 20 0 35
25 25 30 97 7 89 -8 -3 -17 2 -20 10 -12 36 -2 53 38 66 39 12 40 16 10 32
-42 24 -43 57 -2 57 17 0 25 10 18 21 -7 12 -26 17 -41 11 -29 -11 -39 30 -14
55 19 19 23 93 4 82 -13 -8 -13 32 0 116 1 8 9 14 17 13 37 -6 65 4 65 22 0
11 -18 20 -40 20 -23 0 -40 13 -40 31 0 17 9 26 20 19 18 -11 31 50 21 100 -3
11 -8 62 -11 114 -4 52 -17 112 -29 134 -35 65 -24 85 23 38 61 -61 70 -14 14
77 -54 88 -70 356 -20 337 22 -9 23 -5 3 19 -13 16 -18 39 -11 51 9 15 23 10
40 -14 15 -20 33 -29 41 -21 8 8 -9 33 -38 56 -69 54 -43 119 48 119 32 0 59
7 60 15 1 37 100 85 148 73 28 -7 46 -20 40 -30 -6 -10 -2 -18 10 -18 11 0 21
14 21 30 0 17 -9 30 -20 30 -11 0 -20 10 -20 23 0 13 6 18 13 10 7 -7 26 6 42
28 27 38 32 39 64 10 37 -34 121 22 86 57 -8 9 -6 14 5 11 11 -2 25 -2 30 0
31 13 115 10 107 -3 -5 -9 -1 -16 9 -16 11 0 24 18 30 41 6 22 18 38 27 35 9
-2 36 6 59 19 24 13 48 19 53 13 6 -6 50 8 97 30 47 23 89 38 93 34 4 -5 34
-1 65 8 42 12 65 9 81 -11 13 -16 32 -23 43 -16 13 8 13 17 -1 25 -12 7 -16
33 -10 57 10 39 14 41 42 13 28 -29 33 -29 49 0 10 18 41 32 69 32 28 0 66 18
84 41 34 43 144 71 197 50 21 -8 25 -19 11 -36 -11 -14 -27 -54 -34 -90 -8
-36 -26 -65 -39 -65 -14 0 -36 -23 -49 -51 -14 -31 -32 -46 -46 -37 -14 9 -18
5 -9 -9 8 -13 3 -23 -13 -23 -15 0 -48 -23 -72 -51 -24 -28 -52 -46 -61 -40
-10 6 -22 -8 -28 -31 -6 -23 -19 -37 -28 -32 -9 6 -43 -21 -76 -59 -33 -38
-85 -97 -115 -132 -35 -40 -51 -76 -44 -99 7 -20 2 -36 -11 -36 -13 0 -20 -11
-15 -25 5 -14 39 -25 75 -25 36 0 70 -11 75 -25 6 -17 -15 -25 -67 -25 -74 0
-80 -28 -6 -32 74 -5 80 -8 66 -31 -10 -16 -1 -20 24 -13 42 11 52 -48 19
-103 -12 -18 -10 -23 6 -13 13 8 23 4 23 -8 0 -33 53 -81 71 -64 8 8 10 5 4
-6 -29 -51 34 -88 84 -51 l47 36 -53 35 c-29 19 -53 50 -53 69 0 18 -22 53
-48 76 -27 23 -63 73 -81 111 -18 38 -50 87 -72 110 -38 41 -38 42 11 101 28
32 50 68 50 79 0 11 23 25 50 32 33 9 50 27 50 55 0 25 10 38 26 31 31 -12
101 42 120 93 8 20 32 41 54 47 22 6 40 23 40 39 0 16 14 34 31 40 17 7 43 36
58 64 58 110 411 429 411 371 0 -7 16 -1 35 14 19 15 29 19 21 10 -8 -9 0 -31
17 -47 16 -17 26 -47 21 -67 -5 -19 2 -40 17 -45 30 -12 55 41 35 74 -38 60
-12 85 49 46 30 -18 65 0 65 34 0 14 10 35 22 47 29 29 85 10 62 -21z"/>
<path d="M1189 1732 c-23 -26 -61 -53 -85 -61 -56 -18 -58 -51 -2 -41 38 8
158 114 158 140 0 23 -33 6 -71 -38z"/>
<path d="M928 1520 c-24 -9 -47 -39 -52 -67 -13 -65 24 -51 68 27 19 33 32 59
30 59 -2 -1 -23 -9 -46 -19z"/>
<path d="M905 1387 c-14 -6 -25 -23 -25 -39 0 -15 -11 -28 -25 -28 -18 -1 -18
-5 2 -18 17 -10 28 -58 30 -120 2 -56 12 -103 23 -103 31 -2 45 85 24 147 -10
30 -14 82 -10 115 5 32 8 58 8 57 -1 0 -13 -6 -27 -11z"/>
<path d="M2651 1182 c-6 -10 -29 -14 -51 -8 -22 6 -40 1 -40 -12 0 -12 11 -22
25 -22 49 1 115 25 115 42 0 23 -34 23 -49 0z"/>
<path d="M2668 872 c15 -12 32 -35 38 -52 9 -24 11 -23 12 5 1 19 11 35 22 35
11 0 20 8 20 17 0 9 -27 16 -59 16 -46 0 -53 -5 -33 -21z"/>
<path d="M683 789 c-37 -39 -41 -49 -15 -49 18 0 32 8 32 19 0 10 13 21 29 25
18 3 24 16 15 30 -10 16 -29 9 -61 -25z"/>
<path d="M4269 3110 c-34 -25 -35 -32 -9 -49 24 -16 17 -22 -33 -32 -152 -31
-543 -568 -581 -798 -9 -58 -1 -76 53 -124 38 -34 79 -101 100 -164 l36 -107
90 127 c190 270 209 343 85 346 -11 1 -22 19 -26 41 -14 90 -25 103 -53 64
-20 -27 -30 -30 -37 -10 -6 14 -12 -3 -12 -39 -1 -42 8 -65 25 -65 22 0 73
-78 73 -112 0 -13 -75 7 -135 37 -83 41 -27 237 106 370 l80 81 77 -71 c72
-66 97 -118 126 -269 7 -37 -23 -142 -92 -324 -158 -414 -245 -921 -276 -1607
l-12 -285 574 0 574 0 -10 85 c-6 47 -15 153 -21 235 -71 1009 -78 1058 -203
1410 -132 372 -127 414 74 640 165 186 191 204 208 145 7 -25 23 -66 35 -91
18 -35 17 -56 -1 -85 -25 -40 -34 -95 -12 -73 7 7 26 -1 43 -18 16 -16 24 -35
18 -42 -6 -6 -43 20 -82 59 -110 110 -156 62 -70 -74 35 -54 71 -120 81 -146
30 -80 121 -185 159 -185 28 0 38 -18 43 -80 9 -126 47 -84 41 46 -3 82 6 138
33 191 l38 74 -144 286 c-251 499 -298 542 -594 557 -160 8 -220 19 -261 48
-64 46 -60 45 -108 8z m351 -257 c0 10 44 19 99 20 118 4 139 -27 70 -102 -27
-29 -49 -57 -49 -62 0 -5 -27 -47 -60 -92 -33 -46 -60 -93 -60 -106 0 -63 -52
-131 -100 -131 -73 1 -94 23 -88 90 22 218 24 290 7 301 -30 18 -22 49 9 37
16 -6 48 8 72 32 34 34 49 38 71 19 16 -13 29 -16 29 -6z m-280 -55 c0 -9 15
-11 33 -4 49 19 23 -39 -29 -66 -24 -12 -39 -27 -33 -33 7 -6 2 -17 -10 -24
-12 -8 -21 2 -21 23 -1 28 -5 30 -18 9 -33 -52 -44 15 -13 76 29 55 91 68 91
19z m161 -459 c31 -16 39 -42 40 -125 1 -241 68 -571 123 -610 20 -15 31 -35
25 -45 -6 -11 -5 -29 3 -42 7 -12 17 -55 22 -95 11 -104 17 -143 35 -227 10
-49 8 -85 -7 -103 -17 -20 -15 -33 8 -52 19 -15 24 -34 13 -48 -32 -41 -37
-103 -10 -128 15 -14 27 -36 27 -50 0 -15 -7 -13 -19 6 -15 24 -22 20 -38 -20
-21 -56 6 -108 44 -86 13 7 6 -6 -14 -29 -39 -45 -33 -96 19 -179 21 -33 23
-58 7 -98 -11 -29 -16 -58 -11 -63 14 -14 -36 -62 -53 -52 -8 5 -15 -2 -15
-16 0 -13 -13 -7 -29 14 -17 22 -30 28 -30 14 -1 -37 -81 -31 -81 6 0 17 9 26
20 19 11 -7 20 -3 20 8 0 12 23 27 52 34 38 10 45 18 25 30 -15 9 -35 8 -46
-3 -10 -10 -31 -19 -46 -19 -38 0 -90 -55 -75 -80 7 -11 -1 -15 -19 -8 -17 7
-31 23 -32 35 0 13 -9 7 -21 -12 -25 -43 -81 -45 -159 -4 -32 16 -59 23 -59
14 0 -9 -22 -18 -50 -20 -47 -4 -59 12 -51 70 1 14 -7 25 -18 25 -12 0 -21 9
-21 19 0 11 14 15 30 8 17 -6 30 -1 30 12 0 33 -56 86 -77 73 -29 -18 10 152
40 170 22 15 22 21 -3 38 -21 14 -22 19 -4 20 16 0 23 20 18 55 -4 30 1 76 13
101 16 36 14 51 -8 65 -23 15 -22 18 9 19 21 0 33 6 26 13 -7 7 -4 29 8 50 11
21 13 36 4 35 -41 -7 -49 5 -23 35 15 18 23 34 19 35 -5 1 8 36 27 78 20 41
31 81 24 88 -7 7 -2 25 10 40 18 21 16 24 -10 14 -42 -16 -42 6 -1 47 30 30
30 34 -1 57 -34 25 -9 61 27 39 9 -6 30 4 45 23 24 29 22 32 -18 21 -25 -6
-51 -1 -58 12 -7 13 -6 17 2 9 38 -34 83 22 81 102 -2 61 5 80 29 78 73 -5
122 5 111 24 -7 11 -35 20 -62 20 -43 0 -47 5 -28 40 12 22 34 40 50 40 21 0
28 30 29 115 2 114 12 321 18 350 4 20 18 19 64 -6z m685 -81 c8 -31 4 -38
-19 -30 -17 7 -34 12 -39 12 -4 0 -8 14 -8 30 0 45 54 36 66 -12z"/>
<path d="M4413 1585 c-26 -41 28 -73 116 -67 35 2 36 6 10 30 -38 36 -113 58
-126 37z"/>
<path d="M4533 1210 c7 -19 -1 -30 -21 -30 -18 0 -32 -10 -32 -23 0 -13 6 -18
13 -11 7 7 27 5 45 -5 26 -14 32 -6 34 41 1 36 -8 58 -24 58 -16 0 -22 -13
-15 -30z"/>
<path d="M4434 1033 c-16 -42 12 -74 47 -52 23 15 23 18 2 19 -23 0 -23 6 -3
30 20 24 19 30 -5 30 -17 0 -35 -12 -41 -27z"/>
<path d="M4204 631 c8 -9 1 -29 -15 -45 -40 -40 -36 -64 11 -61 41 4 57 35 18
35 -17 0 -16 8 1 28 18 22 17 32 -3 43 -14 9 -20 8 -12 0z"/>
<path d="M3597 2049 c-25 -58 -40 -517 -21 -634 12 -76 51 -69 81 15 14 39 34
70 44 70 11 0 19 16 19 35 0 20 18 84 40 144 44 121 24 165 -44 97 -28 -28
-36 -54 -27 -90 9 -36 5 -48 -13 -41 -37 12 -43 105 -9 139 19 19 23 39 11 58
-9 15 -18 69 -18 118 -1 126 -30 167 -63 89z"/>
<path d="M5420 2010 c0 -44 -6 -127 -13 -185 -23 -190 50 -106 82 95 9 52 1
83 -28 120 l-40 50 -1 -80z"/>
<path d="M5611 1665 c15 -103 41 -165 68 -165 9 0 22 -22 29 -50 7 -27 21 -50
30 -50 10 0 46 -26 80 -58 34 -32 62 -54 62 -49 0 19 -60 124 -75 130 -15 7
-49 67 -139 242 -26 52 -53 95 -58 95 -6 0 -4 -43 3 -95z"/>
<path d="M5096 1729 c-16 -16 5 -89 26 -89 10 0 18 14 18 30 0 17 1 37 2 45 1
19 -31 29 -46 14z"/>
<path d="M3194 1285 c-9 -13 -11 -54 -5 -90 6 -36 15 -96 19 -135 14 -117 58
-268 87 -297 34 -35 55 -16 35 31 -9 20 -18 50 -21 66 -3 17 -19 80 -36 140
-17 61 -39 155 -48 210 -9 60 -22 90 -31 75z"/>
<path d="M5770 1257 c-7 -18 -10 -72 -6 -120 l7 -87 25 85 c27 89 3 198 -26
122z"/>
<path d="M3326 402 c3 -255 9 -302 34 -302 17 0 39 -20 50 -45 30 -67 335 -79
370 -15 36 68 7 80 -191 80 l-189 0 0 77 c0 42 -6 82 -12 89 -7 6 -16 64 -20
128 -10 151 -26 270 -36 281 -5 5 -7 -127 -6 -293z"/>
<path d="M5069 99 c-7 -12 3 -39 22 -60 90 -99 662 -40 599 61 -17 28 -604 26
-621 -1z"/>
</g>
</svg>
